<svg width="200" height="200" xmlns="http://www.w3.org/2000/svg">
 <!-- Created with Method Draw - http://github.com/duopixel/Method-Draw/ -->
 <g>
  <title>background</title>
  <rect fill="#fff" id="canvas_background" height="202" width="202" y="-1" x="-1"/>
  <g display="none" overflow="visible" y="0" x="0" height="100%" width="100%" id="canvasGrid">
   <rect fill="url(#gridpattern)" stroke-width="0" y="0" x="0" height="100%" width="100%"/>
  </g>
 </g>
 <g>
  <title>Layer 1</title>
  <ellipse stroke="#ffffff" transform="rotate(-0.01692885346710682 102.29794311544535,138.02186584470124) " ry="92.951249" rx="146.104931" id="svg_21" cy="138.021862" cx="102.297948" fill-opacity="null" stroke-opacity="null" stroke-width="0" fill="#000"/>
  <path d="m253.5,43.5c0,0 -1.026749,-0.229752 -2,0c-2.176254,0.513744 -6.948746,2.305973 -18,4c-23.907516,3.664742 -63.114883,6.056351 -108,12c-39.117371,5.179893 -75.883808,14.755585 -106,19c-25.916387,3.652519 -44.090815,5.119957 -58,7c-5.05307,0.682999 -5,1 -5,1c1,-1 2,-1 2,-1l1,0l1,0l2,-1" id="svg_13" stroke-width="0" stroke="#ffffff" fill="none"/>
  <path d="m365.5,44.5c0,0 0,0 0,0l0,0" id="svg_14" stroke-width="0" stroke="#ffffff" fill="none"/>
  <path d="m101.5,61.5c-3,1 -8.9907,4.026131 -23,9c-16.988777,6.031708 -43.269588,13.237915 -64,21c-12.174559,4.558517 -19.549156,8.95517 -23,10c-1.914184,0.579567 -2,0 -2,0c3,-2 10.894661,-7.197289 22,-13c15.854662,-8.284302 33,-15 51,-23c18,-8 32.01136,-11.957645 47,-16c11.00843,-2.968914 16.292892,-3.707108 17,-3c0.707108,0.707108 -0.625313,2.413616 -5,6c-5.576653,4.571758 -13,9 -22,14c-9,5 -15.746742,9.371346 -20,12c-1.902115,1.175568 -2,1 -2,1c1,-1 3,-2 5,-4l3,-2l4,-2l3,-1" id="svg_16" stroke-width="0" stroke="#ffffff" fill="none"/>
  <rect id="svg_18" height="0" width="1" y="181.5" x="90.5" stroke-width="0" stroke="#ffffff" fill="#000"/>
  <text font-style="normal" font-weight="normal" stroke="#000" transform="matrix(1.9666613377639834,0,0,3.141289827012999,-33.56370222365801,-40.53274393515494) " xml:space="preserve" text-anchor="start" font-family="'Courier New', Courier, monospace" font-size="20" id="svg_3" y="70.065132" x="22.429369" stroke-opacity="null" stroke-width="0" fill="#ffffff">Cmds++</text>
 </g>
</svg>